<?xml version="1.0" encoding="UTF-8" standalone="no"?>
<!-- Created with Inkscape (http://www.inkscape.org/) -->

<svg
   width="1200"
   height="600"
   viewBox="0 0 1200 600.00003"
   version="1.1"
   id="svg2180"
   inkscape:version="1.2.2 (732a01da63, 2022-12-09)"
   sodipodi:docname="punched_card.svg"
   xml:space="preserve"
   xmlns:inkscape="http://www.inkscape.org/namespaces/inkscape"
   xmlns:sodipodi="http://sodipodi.sourceforge.net/DTD/sodipodi-0.dtd"
   xmlns="http://www.w3.org/2000/svg"
   xmlns:svg="http://www.w3.org/2000/svg"><sodipodi:namedview
     id="namedview2182"
     pagecolor="#ffffff"
     bordercolor="#000000"
     borderopacity="0.25"
     inkscape:showpageshadow="2"
     inkscape:pageopacity="0.0"
     inkscape:pagecheckerboard="0"
     inkscape:deskcolor="#d1d1d1"
     inkscape:document-units="px"
     showgrid="true"
     inkscape:zoom="0.70710678"
     inkscape:cx="321.02648"
     inkscape:cy="151.32085"
     inkscape:window-width="1920"
     inkscape:window-height="1017"
     inkscape:window-x="-8"
     inkscape:window-y="-8"
     inkscape:window-maximized="1"
     inkscape:current-layer="layer1"><inkscape:grid
       type="xygrid"
       id="grid2301"
       spacingx="10"
       spacingy="10"
       empspacing="4"
       originx="0"
       originy="0" /></sodipodi:namedview><defs
     id="defs2177"><filter
       inkscape:label="Burst"
       inkscape:menu="Textures"
       inkscape:menu-tooltip="Burst balloon texture crumpled and with holes"
       x="-0.001"
       y="-0.002"
       width="1.002"
       height="1.004"
       style="color-interpolation-filters:sRGB;"
       id="filter13323"><feTurbulence
         seed="8"
         type="fractalNoise"
         baseFrequency="0.03"
         numOctaves="5"
         result="result8"
         id="feTurbulence13299" /><feColorMatrix
         values="1 0 0 0 0 0 1 0 0 0 0 0 1 0 0 0 0 0 4 -0.7 "
         result="result5"
         id="feColorMatrix13301" /><feComposite
         result="result11"
         in2="result5"
         operator="in"
         in="SourceGraphic"
         id="feComposite13303" /><feDisplacementMap
         result="result4"
         scale="50"
         yChannelSelector="G"
         xChannelSelector="R"
         in="result11"
         in2="result8"
         id="feDisplacementMap13305" /><feComposite
         result="result7"
         in2="SourceAlpha"
         operator="arithmetic"
         in="result4"
         k2="1.3"
         id="feComposite13307" /><feColorMatrix
         result="fbSourceGraphicAlpha"
         in="result7"
         values="1 0 0 -1 0 1 0 1 -1 0 1 0 0 -1 0 -0.8 -1 0 4 -2.5 "
         id="feColorMatrix13309" /><feGaussianBlur
         stdDeviation="0.5"
         result="result10"
         id="feGaussianBlur13311" /><feDiffuseLighting
         surfaceScale="15"
         diffuseConstant="0.4"
         result="result6"
         lighting-color="rgb(255,255,255)"
         in="result10"
         id="feDiffuseLighting13315"><feDistantLight
           azimuth="235"
           elevation="25"
           id="feDistantLight13313" /></feDiffuseLighting><feComposite
         operator="in"
         result="result2"
         in="result6"
         in2="result7"
         id="feComposite13317" /><feComposite
         in2="result7"
         operator="arithmetic"
         k2="0.8"
         k3="0.8"
         result="result12"
         id="feComposite13319" /><feBlend
         in2="result12"
         mode="lighten"
         id="feBlend13321" /></filter><filter
       inkscape:label="Blur"
       inkscape:menu="Image Effects"
       inkscape:menu-tooltip="Adds a small scale graininess"
       style="color-interpolation-filters:sRGB;"
       id="filter13353"
       x="-0.00507096"
       y="-0.03026568"
       width="1.0101419"
       height="1.0605314"><feTurbulence
         type="fractalNoise"
         numOctaves="3"
         baseFrequency="1"
         seed="0"
         result="result0"
         id="feTurbulence13343" /><feColorMatrix
         result="result4"
         values="0"
         type="saturate"
         id="feColorMatrix13345" /><feComposite
         in="SourceGraphic"
         in2="result4"
         operator="arithmetic"
         k1="1.25"
         k2="0.5"
         k3="0.5"
         result="result2"
         id="feComposite13347" /><feBlend
         result="result5"
         mode="normal"
         in="result2"
         in2="SourceGraphic"
         id="feBlend13349" /><feComposite
         in="result5"
         in2="SourceGraphic"
         operator="in"
         result="fbSourceGraphic"
         id="feComposite13351" /><feColorMatrix
         result="fbSourceGraphicAlpha"
         in="fbSourceGraphic"
         values="0 0 0 -1 0 0 0 0 -1 0 0 0 0 -1 0 0 0 0 1 0"
         id="feColorMatrix13639" /><feGaussianBlur
         id="feGaussianBlur13641"
         stdDeviation="1.26774 3.78321"
         result="fbSourceGraphic"
         in="fbSourceGraphic" /><feColorMatrix
         result="fbSourceGraphicAlpha"
         in="fbSourceGraphic"
         values="0 0 0 -1 0 0 0 0 -1 0 0 0 0 -1 0 0 0 0 1 0"
         id="feColorMatrix13643" /><feGaussianBlur
         id="feGaussianBlur13645"
         stdDeviation="1.26774 3.78321"
         result="blur"
         in="fbSourceGraphic" /></filter></defs><g
     inkscape:label="Layer 1"
     inkscape:groupmode="layer"
     id="layer1"><path
       id="path15725"
       style="fill:#efdbbe;stroke-width:10;stop-color:#000000"
       d="M 50 0 L 0 88.425781 L 0 600 L 1200 600 L 1200 0 L 50 0 z M 80 55 L 100 55 L 100 105 L 80 105 L 80 55 z M 120 55 L 140 55 L 140 105 L 120 105 L 120 55 z M 160 55 L 180 55 L 180 105 L 160 105 L 160 55 z M 200 55 L 220 55 L 220 105 L 200 105 L 200 55 z M 240 55 L 260 55 L 260 105 L 240 105 L 240 55 z M 280 55 L 300 55 L 300 105 L 280 105 L 280 55 z M 320 55 L 340 55 L 340 105 L 320 105 L 320 55 z M 360 55 L 380 55 L 380 105 L 360 105 L 360 55 z M 440 55 L 460 55 L 460 105 L 440 105 L 440 55 z M 480 55 L 500 55 L 500 105 L 480 105 L 480 55 z M 520 55 L 540 55 L 540 105 L 520 105 L 520 55 z M 560 55 L 580 55 L 580 105 L 560 105 L 560 55 z M 600 55 L 620 55 L 620 105 L 600 105 L 600 55 z M 640 55 L 660 55 L 660 105 L 640 105 L 640 55 z M 680 55 L 700 55 L 700 105 L 680 105 L 680 55 z M 720 55 L 740 55 L 740 105 L 720 105 L 720 55 z M 760 55 L 780 55 L 780 105 L 760 105 L 760 55 z M 800 55 L 820 55 L 820 105 L 800 105 L 800 55 z M 880 55 L 900 55 L 900 105 L 880 105 L 880 55 z M 920 55 L 940 55 L 940 105 L 920 105 L 920 55 z M 960 55 L 980 55 L 980 105 L 960 105 L 960 55 z M 1000 55 L 1020 55 L 1020 105 L 1000 105 L 1000 55 z M 1040 55 L 1060 55 L 1060 105 L 1040 105 L 1040 55 z M 1120 55 L 1140 55 L 1140 105 L 1120 105 L 1120 55 z M 120 160 L 140 160 L 140 200 L 120 200 L 120 160 z M 360 160 L 380 160 L 380 200 L 360 200 L 360 160 z M 560 160 L 580 160 L 580 200 L 560 200 L 560 160 z M 600 160 L 620 160 L 620 200 L 600 200 L 600 160 z M 960 160 L 980 160 L 980 200 L 960 200 L 960 160 z M 1080 160 L 1100 160 L 1100 200 L 1080 200 L 1080 160 z M 200 233 L 220 233 L 220 260 L 200 260 L 200 233 z M 240 233 L 260 233 L 260 260 L 240 260 L 240 233 z M 280 233 L 300 233 L 300 260 L 280 260 L 280 233 z M 360 233 L 380 233 L 380 260 L 360 260 L 360 233 z M 520 233 L 540 233 L 540 260 L 520 260 L 520 233 z M 640 233 L 660 233 L 660 260 L 640 260 L 640 233 z M 680 233 L 700 233 L 700 260 L 680 260 L 680 233 z M 960 233 L 980 233 L 980 260 L 960 260 L 960 233 z M 1000 233 L 1020 233 L 1020 260 L 1000 260 L 1000 233 z M 1040 233 L 1060 233 L 1060 260 L 1040 260 L 1040 233 z M 160 313 L 180 313 L 180 340 L 160 340 L 160 313 z M 200 313 L 220 313 L 220 340 L 200 340 L 200 313 z M 520 313 L 540 313 L 540 340 L 520 340 L 520 313 z M 1000 313 L 1020 313 L 1020 340 L 1000 340 L 1000 313 z M 80 393 L 100 393 L 100 420 L 80 420 L 80 393 z M 320 393 L 340 393 L 340 420 L 320 420 L 320 393 z M 680 393 L 700 393 L 700 420 L 680 420 L 680 393 z M 880 393 L 900 393 L 900 420 L 880 420 L 880 393 z M 920 393 L 940 393 L 940 420 L 920 420 L 920 393 z M 1080 393 L 1100 393 L 1100 420 L 1080 420 L 1080 393 z M 200 473 L 220 473 L 220 500 L 200 500 L 200 473 z M 240 473 L 260 473 L 260 500 L 240 500 L 240 473 z M 440 473 L 460 473 L 460 500 L 440 500 L 440 473 z M 600 473 L 620 473 L 620 500 L 600 500 L 600 473 z M 840 473 L 860 473 L 860 500 L 840 500 L 840 473 z M 880 473 L 900 473 L 900 500 L 880 500 L 880 473 z " /><path
       id="rect15901-0"
       style="opacity:0.6;stroke-width:3.53553;stop-color:#000000"
       d="m 1120,55 h 20 v 5 h -20 z m -80,0 h 20 v 5 h -20 z m -160,0 v 5 h 20 v -5 z m 40,0 v 5 h 20 v -5 z m 40,0 v 5 h 20 v -5 z m 40,0 v 5 h 20 v -5 z" /><path
       id="rect15241-0-1"
       style="opacity:0.6;stroke-width:7.07107;stop-color:#000000"
       d="m 960,160.00001 v 4 h 20 v -4 z m 120,0 v 4 h 20 v -4 z" /><path
       id="path15614"
       style="display:inline;opacity:0.6;stroke-width:10;stop-color:#000000"
       d="M 79.980469 54.964844 L 79.980469 59.964844 L 99.980469 59.964844 L 99.980469 54.964844 L 79.980469 54.964844 z M 120 55 L 120 60 L 140 60 L 140 55 L 120 55 z M 160 55 L 160 60 L 180 60 L 180 55 L 160 55 z M 200 55 L 200 60 L 220 60 L 220 55 L 200 55 z M 240 55 L 240 60 L 260 60 L 260 55 L 240 55 z M 280 55 L 280 60 L 300 60 L 300 55 L 280 55 z M 320 55 L 320 60 L 340 60 L 340 55 L 320 55 z M 360 55 L 360 60 L 380 60 L 380 55 L 360 55 z M 440 55 L 440 60 L 460 60 L 460 55 L 440 55 z M 760 55 L 760 60 L 780 60 L 780 55 L 760 55 z M 800 55 L 800 60 L 820 60 L 820 55 L 800 55 z M 480.01953 55.035156 L 480.01953 60.035156 L 500.01953 60.035156 L 500.01953 55.035156 L 480.01953 55.035156 z M 520.01953 55.035156 L 520.01953 60.035156 L 540.01953 60.035156 L 540.01953 55.035156 L 520.01953 55.035156 z M 560.01953 55.035156 L 560.01953 60.035156 L 580.01953 60.035156 L 580.01953 55.035156 L 560.01953 55.035156 z M 600.01953 55.035156 L 600.01953 60.035156 L 620.01953 60.035156 L 620.01953 55.035156 L 600.01953 55.035156 z M 640.01953 55.035156 L 640.01953 60.035156 L 660.01953 60.035156 L 660.01953 55.035156 L 640.01953 55.035156 z M 680.01953 55.035156 L 680.01953 60.035156 L 700.01953 60.035156 L 700.01953 55.035156 L 680.01953 55.035156 z M 720.01953 55.035156 L 720.01953 60.035156 L 740.01953 60.035156 L 740.01953 55.035156 L 720.01953 55.035156 z " /><path
       id="rect16033"
       style="opacity:0.6;stroke-width:5;stop-color:#000000"
       d="m 600,160 h 20 v 5 h -20 z m -40,0 h 20 v 5 h -20 z m -199.99997,0 h 20 v 5 h -20 z m -240.00002,0 h 20 v 5 h -20 z" /><text
       xml:space="preserve"
       style="font-weight:bold;font-size:40px;font-family:'Open Sans';-inkscape-font-specification:'Open Sans Bold';text-align:start;letter-spacing:16px;text-anchor:start;opacity:0.6;fill:#63452c;fill-opacity:1;stroke:none;stroke-width:10;-inkscape-stroke:none;stop-color:#000000"
       x="77.71875"
       y="258.91797"
       id="text14468"><tspan
         sodipodi:role="line"
         id="tspan14466"
         x="77.71875"
         y="258.91797"
         style="font-style:normal;font-variant:normal;font-weight:bold;font-stretch:normal;font-size:40px;font-family:'Courier New';-inkscape-font-specification:'Courier New Bold';fill:#63452c">000   0 000 00  000000   00</tspan></text><text
       xml:space="preserve"
       style="font-weight:bold;font-size:40px;font-family:'Open Sans';-inkscape-font-specification:'Open Sans Bold';text-align:start;letter-spacing:16px;text-anchor:start;opacity:0.6;fill:#63452c;fill-opacity:1;stroke:none;stroke-width:10;-inkscape-stroke:none;stop-color:#000000"
       x="77.699219"
       y="338.91818"
       id="text14468-2"><tspan
         sodipodi:role="line"
         id="tspan14466-8"
         x="77.699219"
         y="338.91818"
         style="font-style:normal;font-variant:normal;font-weight:bold;font-stretch:normal;font-size:40px;font-family:'Courier New';-inkscape-font-specification:'Courier New Bold';fill:#63452c">11  1111111 11111111111 111</tspan></text><text
       xml:space="preserve"
       style="font-weight:bold;font-size:40px;font-family:'Open Sans';-inkscape-font-specification:'Open Sans Bold';text-align:start;letter-spacing:16px;text-anchor:start;opacity:0.6;fill:#63452c;fill-opacity:1;stroke:none;stroke-width:10;-inkscape-stroke:none;stop-color:#000000"
       x="77.699219"
       y="418.91815"
       id="text14468-2-8"><tspan
         sodipodi:role="line"
         id="tspan14466-8-5"
         x="77.699219"
         y="418.91815"
         style="font-style:normal;font-variant:normal;font-weight:bold;font-stretch:normal;font-size:40px;font-family:'Courier New';-inkscape-font-specification:'Courier New Bold';fill:#63452c"> 22222 22222222 2222  222 2</tspan></text><text
       xml:space="preserve"
       style="font-weight:bold;font-size:40px;font-family:'Open Sans';-inkscape-font-specification:'Open Sans Bold';text-align:start;letter-spacing:16px;text-anchor:start;opacity:0.6;fill:#63452c;fill-opacity:1;stroke:none;stroke-width:10;-inkscape-stroke:none;stop-color:#000000"
       x="80.000809"
       y="498.91797"
       id="text14468-2-8-1"><tspan
         sodipodi:role="line"
         id="tspan14466-8-5-4"
         x="80.000809"
         y="498.91797"
         style="font-style:normal;font-variant:normal;font-weight:bold;font-stretch:normal;font-size:40px;font-family:'Courier New';-inkscape-font-specification:'Courier New Bold';fill:#63452c">333  3333 333 33333  333333</tspan></text><path
       id="rect17303-2-79"
       style="display:inline;opacity:0.6;stroke-width:7.07107;stop-color:#000000"
       inkscape:label="number_shadow"
       d="m 200,473 h 20 v 5 h -20 z m 40,0 h 20 v 5 h -20 z m 200,0 h 20 v 5 h -20 z m 160,0 h 20 v 5 h -20 z m 240,0 h 20 v 5 h -20 z m 40,0 h 20 v 5 h -20 z m 200,-80 h 20 v 5 h -20 z m -160,0 h 20 v 5 h -20 z m -40,0 h 20 v 5 h -20 z m -200,0 h 20 v 5 h -20 z m -360,0 h 20 v 5 h -20 z m -240,0 h 20 v 5 H 80 Z m 80,-80 h 20 v 5 h -20 z m 40,0 h 20 v 5 h -20 z m 320,0 h 20 v 5 h -20 z m 480,0 h 20 v 5 h -20 z m 40,-80 h 20 v 5 h -20 z m -40,0 h 20 v 5 h -20 z m -40,0 h 20 v 5 h -20 z m -280,0 h 20 v 5 h -20 z m -40,0 h 20 v 5 h -20 z m -120,0 h 20 v 5 h -20 z m -160,0 h 20 v 5 h -20 z m -80,0 h 20 v 5 h -20 z m -40,0 h 20 v 5 h -20 z m -40,0 h 20 v 5 h -20 z" /><text
       xml:space="preserve"
       style="font-weight:bold;font-size:20px;font-family:'Open Sans';-inkscape-font-specification:'Open Sans Bold';text-align:start;letter-spacing:0px;word-spacing:4px;text-anchor:start;opacity:0.6;fill:#7e7166;fill-opacity:1;stroke:none;stroke-width:10;-inkscape-stroke:none;stop-color:#000000"
       x="78.363281"
       y="559.41406"
       id="text14468-2-8-1-7"><tspan
         sodipodi:role="line"
         id="tspan14466-8-5-4-3"
         x="78.363281"
         y="559.41406"
         style="font-style:normal;font-variant:normal;font-weight:bold;font-stretch:normal;font-size:20px;font-family:'Courier New';-inkscape-font-specification:'Courier New Bold';fill:#7e7166;fill-opacity:1">10 11 12 13 14 15 16 17 18 19 20 21 22 23 24 25 26 27 28 29 30 31 32 33 34 35 36</tspan></text><g
       id="g17287"
       inkscape:label="ver_1"
       style="display:none"><path
         id="path17701"
         style="display:inline;opacity:0.6;stroke-width:7.07107;stop-color:#000000"
         inkscape:label="number_shadow"
         d="m 200,473 h 20 v 5 h -20 z m 40,0 h 20 v 5 h -20 z m 200,0 h 20 v 5 h -20 z m 160,0 h 20 v 5 h -20 z m 240,0 h 20 v 5 h -20 z m 40,0 h 20 v 5 h -20 z m 200,-80 h 20 v 5 h -20 z m -160,0 h 20 v 5 h -20 z m -40,0 h 20 v 5 h -20 z m -200,0 h 20 v 5 h -20 z m -360,0 h 20 v 5 h -20 z m -240,0 h 20 v 5 H 80 Z m 80,-80 h 20 v 5 h -20 z m 40,0 h 20 v 5 h -20 z m 320,0 h 20 v 5 h -20 z m 480,0 h 20 v 5 h -20 z m 40,-80 h 20 v 5 h -20 z m -40,0 h 20 v 5 h -20 z m -40,0 h 20 v 5 h -20 z m -280,0 h 20 v 5 h -20 z m -40,0 h 20 v 5 h -20 z m -120,0 h 20 v 5 h -20 z m -160,0 h 20 v 5 h -20 z m -80,0 h 20 v 5 h -20 z m -40,0 h 20 v 5 h -20 z m -40,0 h 20 v 5 h -20 z" /><path
         id="rect16319-0-6"
         style="display:inline;opacity:0.6;fill:#7e7166;stroke-width:8.21583;stop-color:#000000"
         inkscape:label="3"
         d="m 880,473 h 20 v 27 h -20 z m -40,0 h 20 v 27 h -20 z m -240,0 h 20 v 27 h -20 z m -160,0 h 20 v 27 h -20 z m -200,0 h 20 v 27 h -20 z m -40,0 h 20 v 27 h -20 z" /><path
         id="rect16319-7-7"
         style="display:inline;opacity:0.6;fill:#7e7166;stroke-width:8.21583;stop-color:#000000"
         inkscape:label="2"
         d="m 1080,393 h 20 v 27 h -20 z m -160,0 h 20 v 27 h -20 z m -40,0 h 20 v 27 h -20 z m -200,0 h 20 v 27 h -20 z m -360,0 h 20 v 27 h -20 z m -240,0 h 20 v 27 H 80 Z" /><path
         id="rect16319-8-8"
         style="display:inline;opacity:0.6;fill:#7e7166;stroke-width:8.21583;stop-color:#000000"
         inkscape:label="1"
         d="m 1000,313 h 20 v 27 h -20 z m -480,0 h 20 v 27 h -20 z m -320,0 h 20 v 27 h -20 z m -40,0 h 20 v 27 h -20 z" /><path
         id="rect16319-0-2-1-9-4-2-8-2-6"
         style="opacity:0.6;fill:#7e7166;stroke-width:8.21583;stop-color:#000000"
         inkscape:label="0"
         d="m 1040,233 h 20 v 27 h -20 z m -40,0 h 20 v 27 h -20 z m -40,0 h 20 v 27 h -20 z m -280,0 h 20 v 27 h -20 z m -40,0 h 20 v 27 h -20 z m -120,0 h 20 v 27 h -20 z m -160,0 h 20 v 27 h -20 z m -80,0 h 20 v 27 h -20 z m -40,0 h 20 v 27 h -20 z m -39.99998,0 h 20 v 27 h -20 z" /></g><g
       id="g16855"
       inkscape:label="reusable_stuff"
       style="fill:#000000"
       transform="matrix(1,0,0,0.5,0,118)"><rect
         style="display:none;opacity:0.6;fill:#000000;fill-opacity:1;stroke:none;stroke-width:7.07107;-inkscape-stroke:none;stop-color:#000000"
         id="rect17303-5"
         width="20"
         height="5"
         x="200"
         y="233"
         inkscape:label="number_shadow" /><rect
         style="display:none;opacity:0.6;fill:#000000;fill-opacity:1;stroke:none;stroke-width:8.21583;-inkscape-stroke:none;stop-color:#000000"
         id="rect16319"
         width="20"
         height="27"
         x="200.00002"
         y="233"
         inkscape:label="number_punch_rect" /><path
         id="path16795"
         style="display:none;fill:#000000;stroke-width:10;stop-color:#000000"
         d="M 50,0 0,88.425781 V 600 H 1200 V 0 Z m 30,55 h 20 v 50 H 80 Z m 40,0 h 20 v 50 h -20 z m 40,0 h 20 v 50 h -20 z m 40,0 h 20 v 50 h -20 z m 40,0 h 20 v 50 h -20 z m 40,0 h 20 v 50 h -20 z m 40,0 h 20 v 50 h -20 z m 40,0 h 20 v 50 h -20 z m 80,0 h 20 v 50 h -20 z m 40,0 h 20 v 50 h -20 z m 40,0 h 20 v 50 h -20 z m 40,0 h 20 v 50 h -20 z m 40,0 h 20 v 50 h -20 z m 40,0 h 20 v 50 h -20 z m 40,0 h 20 v 50 h -20 z m 40,0 h 20 v 50 h -20 z m 40,0 h 20 v 50 h -20 z m 40,0 h 20 v 50 h -20 z m 80,0 h 20 v 50 h -20 z m 40,0 h 20 v 50 h -20 z m 40,0 h 20 v 50 h -20 z m 40,0 h 20 v 50 h -20 z m 40,0 h 20 v 50 h -20 z m 80,0 h 20 v 50 h -20 z M 120,160 h 20 v 40 h -20 z m 240,0 h 20 v 40 h -20 z m 200,0 h 20 v 40 h -20 z m 40,0 h 20 v 40 h -20 z m 360,0 h 20 v 40 h -20 z m 120,0 h 20 v 40 h -20 z"
         inkscape:label="original_bg" /></g></g></svg>
